<svg width="113" height="84" viewBox="0 0 113 84" fill="none" xmlns="http://www.w3.org/2000/svg">
<path d="M33.608 55.88C33.608 55.464 33.6427 55.152 33.712 54.944C33.816 54.7013 34.0413 54.58 34.388 54.58C34.7 54.58 35.0467 54.6493 35.428 54.788C35.844 54.9267 36.2427 55.0827 36.624 55.256C37.5947 55.672 38.4613 55.984 39.224 56.192C40.0213 56.4 41.0093 56.504 42.188 56.504C46.4867 56.504 49.7107 55.4813 51.86 53.436C54.044 51.3907 55.136 48.7213 55.136 45.428C55.136 42.4813 54.304 39.8987 52.64 37.68C50.976 35.4267 48.8613 33.6587 46.296 32.376C43.7653 31.0933 41.1827 30.3307 38.548 30.088L41.512 52.084C41.512 52.6733 41.4253 53.1587 41.252 53.54C41.1133 53.9213 40.7667 54.112 40.212 54.112C40.0733 54.1813 39.8133 53.2453 39.432 51.304C39.0507 49.3627 38.5307 46.5027 37.872 42.724C37.1093 38.3213 36.52 35.0627 36.104 32.948C35.688 30.7987 35.3587 29.568 35.116 29.256C32.2387 29.256 29.8813 29.412 28.044 29.724C26.2067 30.0013 24.8027 30.3307 23.832 30.712C22.8613 31.0933 22.4627 31.284 22.636 31.284C22.4627 31.2147 22.3413 31.1107 22.272 30.972C22.2027 30.7987 22.1507 30.556 22.116 30.244C22.0467 29.932 21.9947 29.7067 21.96 29.568C21.96 28.736 22.7053 28.0773 24.196 27.592C25.6867 27.1067 27.2467 26.7773 28.876 26.604C30.54 26.4307 31.6493 26.344 32.204 26.344C35.9133 26.344 39.7787 27.1067 43.8 28.632C47.8213 30.1227 51.2013 32.324 53.94 35.236C56.6787 38.148 58.048 41.5973 58.048 45.584C58.048 48.5653 57.3027 51.1133 55.812 53.228C54.3213 55.308 52.3627 56.8853 49.936 57.96C47.544 59.0347 44.9787 59.572 42.24 59.572C40.0213 59.572 38.028 59.2253 36.26 58.532C34.492 57.8387 33.608 56.9547 33.608 55.88Z" fill="#0365BE"/>
<path d="M19.916 68.908C17.3507 68.908 15.288 68.2667 13.728 66.984C12.2027 65.736 11.44 63.7427 11.44 61.004C11.44 59.1667 11.544 56.8613 11.752 54.088C11.7867 53.7067 11.856 52.8053 11.96 51.384C12.064 49.928 12.0813 48.524 12.012 47.172C11.9773 45.404 11.44 44.156 10.4 43.428C9.39467 42.6653 7.78267 42.284 5.564 42.284C4.35067 42.284 2.912 42.388 1.248 42.596C0.797333 42.2493 0.572 41.7467 0.572 41.088C0.572 40.88 0.606667 40.6027 0.676 40.256C2.61733 39.632 4.108 39.06 5.148 38.54C6.22267 37.9853 6.968 37.4307 7.384 36.876C7.83467 36.2867 8.06 35.576 8.06 34.744C8.06 34.224 7.97333 33.5653 7.8 32.768C7.62667 31.9707 7.45333 31.2773 7.28 30.688C7.10667 30.0987 6.98533 29.648 6.916 29.336C6.5 27.776 6.292 26.3547 6.292 25.072C6.292 19.5947 9.984 16.0933 17.368 14.568C17.6107 14.4987 18.0093 14.464 18.564 14.464C19.8467 14.464 20.9387 14.8107 21.84 15.504C22.776 16.1973 23.244 17.2027 23.244 18.52C23.244 18.832 23.1573 19.1267 22.984 19.404C22.8107 19.6467 22.5333 19.716 22.152 19.612C21.736 19.508 21.3373 19.2307 20.956 18.78C20.5053 18.364 20.02 18.052 19.5 17.844C18.98 17.6013 18.148 17.48 17.004 17.48C14.2307 17.48 12.168 18.0173 10.816 19.092C9.464 20.1667 8.788 21.7093 8.788 23.72C8.788 25.1413 9.1 26.736 9.724 28.504C10.4867 30.688 10.868 32.5427 10.868 34.068C10.868 35.0387 10.712 35.9573 10.4 36.824C10.088 37.6907 9.60267 38.592 8.944 39.528C10.4347 40.1867 11.5613 40.7587 12.324 41.244C13.1213 41.7293 13.7453 42.4053 14.196 43.272C14.6813 44.1387 14.924 45.3 14.924 46.756C14.924 48.0733 14.82 49.9453 14.612 52.372C14.3347 55.3533 14.196 58.196 14.196 60.9C14.196 62.9453 14.6293 64.3493 15.496 65.112C16.3973 65.8747 17.8013 66.256 19.708 66.256C20.2627 66.256 20.8 66.1867 21.32 66.048C21.84 65.944 22.3253 65.8227 22.776 65.684C22.9493 65.6493 23.2787 65.5627 23.764 65.424C24.284 65.2853 24.7867 65.216 25.272 65.216C25.7227 65.216 26.0867 65.2507 26.364 65.32C26.364 66.7067 25.8267 67.6427 24.752 68.128C23.712 68.648 22.1 68.908 19.916 68.908Z" fill="#0365BE"/>
<path d="M90.464 62.856C88.6267 62.856 86.8933 62.596 85.264 62.076C83.6693 61.556 82.6467 60.6373 82.196 59.32C82.0573 58.8 82.1613 58.28 82.508 57.76C82.8893 57.2747 83.3573 57.032 83.912 57.032C84.1893 57.032 84.4147 57.1013 84.588 57.24C84.796 57.3787 85.0387 57.604 85.316 57.916C85.9747 58.6093 86.72 59.164 87.552 59.58C88.4187 59.996 89.736 60.204 91.504 60.204C94.3467 60.204 96.4787 59.4933 97.9 58.072C99.3213 56.6507 100.032 54.276 100.032 50.948C100.032 49.3533 99.928 47.9493 99.72 46.736C99.512 45.488 99.2347 44.1707 98.888 42.784C98.472 41.224 98.264 40.0453 98.264 39.248C98.264 38.312 98.5067 37.4107 98.992 36.544C99.512 35.6427 100.396 34.672 101.644 33.632C100.327 32.6613 99.408 31.6387 98.888 30.564C98.368 29.4547 98.108 28.0853 98.108 26.456C98.108 25.208 98.2467 23.5613 98.524 21.516C98.628 20.8227 98.68 20.1813 98.68 19.592C98.68 14.8427 96.028 12.468 90.724 12.468C86.876 12.468 84.952 13.1787 84.952 14.6C84.952 15.0507 85.056 15.3627 85.264 15.536C85.472 15.7093 85.784 15.8653 86.2 16.004C86.5813 16.1427 86.8413 16.2813 86.98 16.42C87.1533 16.524 87.24 16.732 87.24 17.044C87.24 17.356 87.136 17.5813 86.928 17.72C86.7547 17.824 86.46 17.876 86.044 17.876C85.1773 17.876 84.3627 17.5467 83.6 16.888C82.8373 16.1947 82.456 15.328 82.456 14.288C82.456 12.7973 83.0973 11.7573 84.38 11.168C85.6627 10.544 87.5867 10.232 90.152 10.232C93.4453 10.232 96.08 10.96 98.056 12.416C100.032 13.872 101.02 16.004 101.02 18.812L100.968 19.696C100.795 21.7067 100.708 23.284 100.708 24.428C100.708 26.2653 100.916 27.7213 101.332 28.796C101.748 29.836 102.459 30.5987 103.464 31.084C104.504 31.5693 105.925 31.812 107.728 31.812C108.976 31.812 110.224 31.7427 111.472 31.604C111.68 31.7773 111.836 32.0373 111.94 32.384C112.044 32.696 112.096 33.0253 112.096 33.372C112.096 34.1 111.94 34.4987 111.628 34.568L104.816 34.984C103.949 35.0533 103.239 35.4173 102.684 36.076C102.129 36.7347 101.852 37.6707 101.852 38.884C101.852 39.6813 101.939 40.4267 102.112 41.12C102.459 43.2 102.701 44.8813 102.84 46.164C102.979 47.412 103.048 49.0067 103.048 50.948C103.048 53.444 102.493 55.5933 101.384 57.396C100.275 59.1987 98.7667 60.5507 96.86 61.452C94.9533 62.388 92.8213 62.856 90.464 62.856Z" fill="#0365BE"/>
<path d="M68.312 57.052C68.104 57.1213 67.9307 57.156 67.792 57.156C67.6187 57.156 67.428 57.104 67.22 57C66.3187 55.6133 65.608 54.4347 65.088 53.464C64.6027 52.4587 63.788 50.7253 62.644 48.264C61.396 45.352 59.8013 41.244 57.86 35.94C55.9187 30.636 54.948 27.3947 54.948 26.216C54.948 25.904 55.0173 25.6787 55.156 25.54C55.2947 25.3667 55.468 25.28 55.676 25.28C55.8493 25.28 55.988 25.3147 56.092 25.384C56.508 25.6267 57.1667 26.84 58.068 29.024C59.004 31.1733 60.2867 34.3973 61.916 38.696C64.5853 45.768 66.7 51.0027 68.26 54.4C69.0227 53.672 70.0973 51.5227 71.484 47.952C72.8707 44.3467 74.136 40.36 75.28 35.992C76.4587 31.624 77.152 27.9147 77.36 24.864C78.8853 24.76 79.648 25.3667 79.648 26.684C79.648 28.9027 79.024 32.3693 77.776 37.084C76.528 41.7987 75.02 46.1493 73.252 50.136C71.484 54.088 69.8373 56.3933 68.312 57.052Z" fill="#0365BE"/>
</svg>
